<svg width="669" height="597" viewBox="0 0 669 597" fill="none" xmlns="http://www.w3.org/2000/svg">
<circle cx="295.65" cy="298.589" r="146.223" stroke="#DDDDDD"/>
<circle cx="295.65" cy="298.589" r="223.375" stroke="#DDDDDD"/>
<circle cx="441.138" cy="276.545" r="5.8783" fill="#E01E2E"/>
<circle cx="441.138" cy="276.545" r="7.58266" stroke="#E01E2E"/>
<rect x="458" y="265" width="106" height="24" rx="5" fill="#141515"/>
<path d="M480.436 281V277.196H476.884C476.884 277.828 476.884 278.464 476.884 279.104C476.892 279.736 476.896 280.368 476.896 281H475.516V272.78H476.896C476.896 273.356 476.892 273.92 476.884 274.472C476.884 275.024 476.884 275.588 476.884 276.164H480.436V272.78H481.816V281H480.436ZM488.208 280.088H488.988L489.06 280.832C488.892 280.92 488.696 280.984 488.472 281.024C488.256 281.072 488.048 281.096 487.848 281.096C487.6 281.096 487.4 281.052 487.248 280.964C487.104 280.876 487.024 280.68 487.008 280.376C487.008 280.376 487 280.368 486.984 280.352C486.768 280.536 486.556 280.68 486.348 280.784C486.148 280.888 485.956 280.964 485.772 281.012C485.596 281.06 485.436 281.088 485.292 281.096C485.156 281.104 485.044 281.108 484.956 281.108C484.604 281.108 484.312 281.052 484.08 280.94C483.856 280.828 483.676 280.688 483.54 280.52C483.412 280.344 483.32 280.16 483.264 279.968C483.216 279.768 483.192 279.584 483.192 279.416C483.192 279.136 483.252 278.888 483.372 278.672C483.492 278.456 483.656 278.276 483.864 278.132C484.08 277.98 484.328 277.864 484.608 277.784C484.888 277.704 485.192 277.656 485.52 277.64L486.948 277.544V277.22C486.948 276.788 486.864 276.484 486.696 276.308C486.536 276.124 486.224 276.032 485.76 276.032C485.472 276.032 485.164 276.06 484.836 276.116C484.516 276.172 484.212 276.248 483.924 276.344C483.884 276.208 483.844 276.068 483.804 275.924C483.764 275.78 483.724 275.64 483.684 275.504C484.02 275.352 484.404 275.236 484.836 275.156C485.268 275.068 485.68 275.024 486.072 275.024C486.4 275.024 486.696 275.06 486.96 275.132C487.224 275.196 487.448 275.308 487.632 275.468C487.816 275.62 487.956 275.824 488.052 276.08C488.156 276.336 488.208 276.648 488.208 277.016V280.088ZM485.592 278.372C485.24 278.396 484.98 278.488 484.812 278.648C484.652 278.8 484.572 279.008 484.572 279.272C484.572 279.576 484.644 279.808 484.788 279.968C484.94 280.12 485.184 280.196 485.52 280.196C485.744 280.196 485.98 280.14 486.228 280.028C486.476 279.908 486.716 279.744 486.948 279.536V278.276L485.592 278.372ZM495.309 280.076L495.921 280.088V282.704H494.937V281H490.557V282.692H489.549V280.088L490.089 280.076C490.281 279.9 490.433 279.696 490.545 279.464C490.665 279.232 490.757 278.964 490.821 278.66C490.893 278.348 490.945 278 490.977 277.616C491.017 277.224 491.053 276.78 491.085 276.284L491.157 275.12H495.321L495.309 280.076ZM492.261 276.056L492.237 276.548C492.213 277.012 492.185 277.428 492.153 277.796C492.129 278.156 492.089 278.48 492.033 278.768C491.977 279.056 491.905 279.308 491.817 279.524C491.737 279.732 491.629 279.916 491.493 280.076H494.049V276.056H492.261ZM499.45 272.864C499.578 272.808 499.734 272.744 499.918 272.672C500.102 272.6 500.29 272.528 500.482 272.456C500.674 272.376 500.858 272.3 501.034 272.228C501.21 272.156 501.358 272.092 501.478 272.036C501.542 272.172 501.606 272.304 501.67 272.432C501.734 272.56 501.798 272.692 501.862 272.828C501.598 272.964 501.346 273.088 501.106 273.2C500.874 273.304 500.69 273.384 500.554 273.44C500.17 273.6 499.826 273.756 499.522 273.908C499.226 274.052 498.97 274.224 498.754 274.424C498.538 274.616 498.362 274.848 498.226 275.12C498.09 275.392 497.99 275.736 497.926 276.152C497.934 276.152 497.942 276.156 497.95 276.164C498.158 275.876 498.426 275.648 498.754 275.48C499.082 275.304 499.45 275.216 499.858 275.216C500.298 275.216 500.67 275.292 500.974 275.444C501.286 275.588 501.538 275.792 501.73 276.056C501.922 276.312 502.058 276.616 502.138 276.968C502.226 277.32 502.27 277.704 502.27 278.12C502.27 278.488 502.222 278.852 502.126 279.212C502.03 279.564 501.87 279.88 501.646 280.16C501.43 280.44 501.142 280.668 500.782 280.844C500.422 281.012 499.978 281.096 499.45 281.096C498.922 281.096 498.486 281.012 498.142 280.844C497.798 280.668 497.522 280.44 497.314 280.16C497.114 279.88 496.974 279.568 496.894 279.224C496.814 278.872 496.774 278.516 496.774 278.156C496.774 277.74 496.778 277.384 496.786 277.088C496.794 276.792 496.806 276.544 496.822 276.344C496.838 276.144 496.854 275.984 496.87 275.864C496.886 275.736 496.906 275.628 496.93 275.54C497.074 274.916 497.358 274.384 497.782 273.944C498.214 273.496 498.77 273.136 499.45 272.864ZM499.606 276.128C499.334 276.128 499.102 276.196 498.91 276.332C498.718 276.468 498.562 276.64 498.442 276.848C498.322 277.048 498.234 277.276 498.178 277.532C498.13 277.78 498.106 278.016 498.106 278.24C498.106 278.464 498.122 278.692 498.154 278.924C498.186 279.148 498.254 279.352 498.358 279.536C498.462 279.712 498.606 279.86 498.79 279.98C498.974 280.092 499.222 280.148 499.534 280.148C499.814 280.148 500.042 280.092 500.218 279.98C500.402 279.868 500.546 279.72 500.65 279.536C500.754 279.344 500.826 279.132 500.866 278.9C500.906 278.66 500.926 278.416 500.926 278.168C500.926 277.912 500.906 277.664 500.866 277.424C500.834 277.176 500.77 276.956 500.674 276.764C500.578 276.572 500.442 276.42 500.266 276.308C500.098 276.188 499.878 276.128 499.606 276.128ZM508.2 280.088H508.98L509.052 280.832C508.884 280.92 508.688 280.984 508.464 281.024C508.248 281.072 508.04 281.096 507.84 281.096C507.592 281.096 507.392 281.052 507.24 280.964C507.096 280.876 507.016 280.68 507 280.376C507 280.376 506.992 280.368 506.976 280.352C506.76 280.536 506.548 280.68 506.34 280.784C506.14 280.888 505.948 280.964 505.764 281.012C505.588 281.06 505.428 281.088 505.284 281.096C505.148 281.104 505.036 281.108 504.948 281.108C504.596 281.108 504.304 281.052 504.072 280.94C503.848 280.828 503.668 280.688 503.532 280.52C503.404 280.344 503.312 280.16 503.256 279.968C503.208 279.768 503.184 279.584 503.184 279.416C503.184 279.136 503.244 278.888 503.364 278.672C503.484 278.456 503.648 278.276 503.856 278.132C504.072 277.98 504.32 277.864 504.6 277.784C504.88 277.704 505.184 277.656 505.512 277.64L506.94 277.544V277.22C506.94 276.788 506.856 276.484 506.688 276.308C506.528 276.124 506.216 276.032 505.752 276.032C505.464 276.032 505.156 276.06 504.828 276.116C504.508 276.172 504.204 276.248 503.916 276.344C503.876 276.208 503.836 276.068 503.796 275.924C503.756 275.78 503.716 275.64 503.676 275.504C504.012 275.352 504.396 275.236 504.828 275.156C505.26 275.068 505.672 275.024 506.064 275.024C506.392 275.024 506.688 275.06 506.952 275.132C507.216 275.196 507.44 275.308 507.624 275.468C507.808 275.62 507.948 275.824 508.044 276.08C508.148 276.336 508.2 276.648 508.2 277.016V280.088ZM505.584 278.372C505.232 278.396 504.972 278.488 504.804 278.648C504.644 278.8 504.564 279.008 504.564 279.272C504.564 279.576 504.636 279.808 504.78 279.968C504.932 280.12 505.176 280.196 505.512 280.196C505.736 280.196 505.972 280.14 506.22 280.028C506.468 279.908 506.708 279.744 506.94 279.536V278.276L505.584 278.372ZM513.057 275.132C513.681 275.132 514.157 275.268 514.485 275.54C514.813 275.812 514.977 276.18 514.977 276.644C514.977 276.852 514.925 277.072 514.821 277.304C514.725 277.528 514.533 277.72 514.245 277.88V277.892C514.437 277.964 514.593 278.06 514.713 278.18C514.833 278.292 514.929 278.412 515.001 278.54C515.073 278.668 515.121 278.804 515.145 278.948C515.169 279.084 515.181 279.212 515.181 279.332C515.181 279.588 515.129 279.82 515.025 280.028C514.929 280.228 514.793 280.4 514.617 280.544C514.441 280.688 514.237 280.8 514.005 280.88C513.773 280.96 513.525 281 513.261 281H510.009V275.132H513.057ZM511.305 278.336V280.112H512.781C513.173 280.112 513.449 280.02 513.609 279.836C513.777 279.652 513.861 279.444 513.861 279.212C513.861 278.98 513.773 278.776 513.597 278.6C513.421 278.424 513.149 278.336 512.781 278.336H511.305ZM511.305 276.02V277.592H512.709C513.013 277.592 513.249 277.52 513.417 277.376C513.593 277.224 513.681 277.032 513.681 276.8C513.681 276.568 513.601 276.38 513.441 276.236C513.281 276.092 513.017 276.02 512.649 276.02H511.305ZM516.302 281V275.132H517.574V277.436H518.534C518.79 277.436 519.014 277.38 519.206 277.268C519.398 277.148 519.538 276.928 519.626 276.608L520.07 275.144H521.282L520.826 276.764C520.754 277.02 520.646 277.244 520.502 277.436C520.366 277.62 520.194 277.756 519.986 277.844V277.856C520.282 277.952 520.506 278.088 520.658 278.264C520.81 278.44 520.926 278.656 521.006 278.912C521.118 279.264 521.222 279.616 521.318 279.968C521.422 280.312 521.526 280.656 521.63 281H520.358C520.27 280.696 520.178 280.392 520.082 280.088C519.986 279.776 519.89 279.464 519.794 279.152V279.164C519.73 278.98 519.654 278.832 519.566 278.72C519.478 278.608 519.378 278.52 519.266 278.456C519.162 278.392 519.05 278.352 518.93 278.336C518.81 278.312 518.69 278.3 518.57 278.3H517.574V281H516.302ZM527.384 280.088H528.164L528.236 280.832C528.068 280.92 527.872 280.984 527.648 281.024C527.432 281.072 527.224 281.096 527.024 281.096C526.776 281.096 526.576 281.052 526.424 280.964C526.28 280.876 526.2 280.68 526.184 280.376C526.184 280.376 526.176 280.368 526.16 280.352C525.944 280.536 525.732 280.68 525.524 280.784C525.324 280.888 525.132 280.964 524.948 281.012C524.772 281.06 524.612 281.088 524.468 281.096C524.332 281.104 524.22 281.108 524.132 281.108C523.78 281.108 523.488 281.052 523.256 280.94C523.032 280.828 522.852 280.688 522.716 280.52C522.588 280.344 522.496 280.16 522.44 279.968C522.392 279.768 522.368 279.584 522.368 279.416C522.368 279.136 522.428 278.888 522.548 278.672C522.668 278.456 522.832 278.276 523.04 278.132C523.256 277.98 523.504 277.864 523.784 277.784C524.064 277.704 524.368 277.656 524.696 277.64L526.124 277.544V277.22C526.124 276.788 526.04 276.484 525.872 276.308C525.712 276.124 525.4 276.032 524.936 276.032C524.648 276.032 524.34 276.06 524.012 276.116C523.692 276.172 523.388 276.248 523.1 276.344C523.06 276.208 523.02 276.068 522.98 275.924C522.94 275.78 522.9 275.64 522.86 275.504C523.196 275.352 523.58 275.236 524.012 275.156C524.444 275.068 524.856 275.024 525.248 275.024C525.576 275.024 525.872 275.06 526.136 275.132C526.4 275.196 526.624 275.308 526.808 275.468C526.992 275.62 527.132 275.824 527.228 276.08C527.332 276.336 527.384 276.648 527.384 277.016V280.088ZM524.768 278.372C524.416 278.396 524.156 278.488 523.988 278.648C523.828 278.8 523.748 279.008 523.748 279.272C523.748 279.576 523.82 279.808 523.964 279.968C524.116 280.12 524.36 280.196 524.696 280.196C524.92 280.196 525.156 280.14 525.404 280.028C525.652 279.908 525.892 279.744 526.124 279.536V278.276L524.768 278.372ZM538.04 278.888V272.78H539.36V281H538.004C537.516 280.224 537.036 279.448 536.564 278.672C536.092 277.896 535.612 277.116 535.124 276.332L534.2 274.76C534.192 274.76 534.184 274.764 534.176 274.772C534.176 274.772 534.168 274.772 534.152 274.772V281H532.844V272.78H534.212C534.684 273.532 535.144 274.268 535.592 274.988C536.04 275.7 536.492 276.432 536.948 277.184C537.132 277.464 537.304 277.748 537.464 278.036C537.624 278.324 537.796 278.608 537.98 278.888H538.04ZM542.096 272.816C542.448 272.816 542.744 272.872 542.984 272.984C543.224 273.096 543.416 273.248 543.56 273.44C543.712 273.624 543.82 273.836 543.884 274.076C543.948 274.316 543.98 274.564 543.98 274.82C543.98 275.084 543.948 275.336 543.884 275.576C543.82 275.816 543.712 276.028 543.56 276.212C543.416 276.396 543.22 276.544 542.972 276.656C542.732 276.768 542.428 276.824 542.06 276.824C541.716 276.824 541.42 276.772 541.172 276.668C540.932 276.564 540.736 276.424 540.584 276.248C540.432 276.064 540.32 275.852 540.248 275.612C540.184 275.364 540.152 275.104 540.152 274.832C540.152 274.576 540.188 274.328 540.26 274.088C540.332 273.84 540.444 273.624 540.596 273.44C540.756 273.248 540.956 273.096 541.196 272.984C541.444 272.872 541.744 272.816 542.096 272.816ZM543.008 274.832C543.008 274.68 542.996 274.524 542.972 274.364C542.948 274.204 542.9 274.06 542.828 273.932C542.764 273.804 542.672 273.7 542.552 273.62C542.44 273.54 542.288 273.5 542.096 273.5C541.896 273.5 541.732 273.54 541.604 273.62C541.484 273.7 541.388 273.804 541.316 273.932C541.244 274.06 541.192 274.204 541.16 274.364C541.136 274.524 541.124 274.684 541.124 274.844C541.124 275.012 541.136 275.176 541.16 275.336C541.184 275.488 541.228 275.624 541.292 275.744C541.364 275.864 541.464 275.96 541.592 276.032C541.72 276.104 541.888 276.14 542.096 276.14C542.288 276.14 542.44 276.104 542.552 276.032C542.672 275.952 542.764 275.852 542.828 275.732C542.9 275.604 542.948 275.464 542.972 275.312C542.996 275.152 543.008 274.992 543.008 274.832ZM540.2 278.192V277.328H543.932V278.192H540.2ZM546.869 280.052H550.577V281H545.057V280.16C545.281 279.952 545.529 279.724 545.801 279.476C546.081 279.228 546.365 278.968 546.653 278.696C546.941 278.424 547.221 278.144 547.493 277.856C547.765 277.56 548.005 277.268 548.213 276.98C548.429 276.684 548.601 276.392 548.729 276.104C548.857 275.816 548.921 275.54 548.921 275.276C548.921 274.828 548.785 274.5 548.513 274.292C548.249 274.076 547.889 273.968 547.433 273.968C547.225 273.968 546.945 274.004 546.593 274.076C546.249 274.14 545.849 274.304 545.393 274.568L544.973 273.788C545.477 273.436 545.965 273.2 546.437 273.08C546.909 272.96 547.317 272.9 547.661 272.9C548.045 272.9 548.397 272.948 548.717 273.044C549.037 273.14 549.309 273.284 549.533 273.476C549.757 273.668 549.929 273.908 550.049 274.196C550.177 274.476 550.241 274.804 550.241 275.18C550.241 275.644 550.121 276.104 549.881 276.56C549.649 277.008 549.357 277.44 549.005 277.856C548.661 278.264 548.293 278.652 547.901 279.02C547.509 279.38 547.157 279.704 546.845 279.992L546.869 280.052Z" fill="white"/>
<circle cx="298.589" cy="298.589" r="297.589" stroke="#DDDDDD"/>
<circle cx="552.826" cy="143.549" r="5.8783" fill="#E01E2E"/>
<circle cx="552.826" cy="143.549" r="7.58266" stroke="#E01E2E"/>
<circle cx="512.412" cy="352.228" r="7.58266" stroke="#E01E2E"/>
<circle cx="512.412" cy="352.228" r="5.8783" fill="#E01E2E"/>
<circle cx="368.394" cy="86.9701" r="5.8783" fill="#E01E2E"/>
<circle cx="368.394" cy="86.9701" r="7.58266" stroke="#E01E2E"/>
<circle cx="155.305" cy="37.7394" r="5.8783" fill="#E01E2E"/>
<circle cx="155.305" cy="37.7394" r="7.58266" stroke="#E01E2E"/>
<circle cx="9.81745" cy="370.598" r="5.8783" fill="#E01E2E"/>
<circle cx="9.81745" cy="370.598" r="7.58266" stroke="#E01E2E"/>
<circle cx="87.0093" cy="218.871" r="7.58266" stroke="#E01E2E"/>
<rect x="104" y="207" width="86" height="24" rx="5" fill="#141515"/>
<circle cx="87.0093" cy="218.871" r="5.8783" fill="#E01E2E"/>
<path d="M127.719 214.636C128.111 214.636 128.479 214.672 128.823 214.744C129.175 214.808 129.483 214.92 129.747 215.08C130.011 215.24 130.219 215.448 130.371 215.704C130.523 215.96 130.599 216.28 130.599 216.664C130.599 216.976 130.495 217.304 130.287 217.648C130.079 217.984 129.767 218.248 129.351 218.44L129.375 218.5C129.799 218.636 130.147 218.88 130.419 219.232C130.691 219.584 130.827 219.992 130.827 220.456C130.827 220.888 130.739 221.268 130.563 221.596C130.387 221.916 130.147 222.188 129.843 222.412C129.547 222.628 129.195 222.792 128.787 222.904C128.387 223.008 127.955 223.06 127.491 223.06C127.291 223.06 127.071 223.052 126.831 223.036C126.599 223.02 126.359 222.992 126.111 222.952C125.863 222.912 125.619 222.864 125.379 222.808C125.147 222.744 124.931 222.664 124.731 222.568L125.031 221.656C125.463 221.792 125.855 221.888 126.207 221.944C126.559 222 126.911 222.028 127.263 222.028C127.975 222.028 128.511 221.896 128.871 221.632C129.239 221.36 129.423 220.96 129.423 220.432C129.423 220.208 129.375 220.008 129.279 219.832C129.183 219.656 129.051 219.508 128.883 219.388C128.715 219.268 128.515 219.18 128.283 219.124C128.059 219.06 127.815 219.028 127.551 219.028H126.531V218.128H127.479C127.743 218.128 127.979 218.092 128.187 218.02C128.395 217.94 128.571 217.836 128.715 217.708C128.867 217.58 128.983 217.44 129.063 217.288C129.143 217.128 129.183 216.968 129.183 216.808C129.183 216.384 129.031 216.084 128.727 215.908C128.431 215.732 128.019 215.644 127.491 215.644C127.235 215.644 126.911 215.676 126.519 215.74C126.127 215.804 125.743 215.916 125.367 216.076L125.079 215.188C125.247 215.108 125.435 215.036 125.643 214.972C125.851 214.9 126.071 214.84 126.303 214.792C126.535 214.744 126.771 214.708 127.011 214.684C127.251 214.652 127.487 214.636 127.719 214.636ZM136.898 222.088H137.678L137.75 222.832C137.582 222.92 137.386 222.984 137.162 223.024C136.946 223.072 136.738 223.096 136.538 223.096C136.29 223.096 136.09 223.052 135.938 222.964C135.794 222.876 135.714 222.68 135.698 222.376C135.698 222.376 135.69 222.368 135.674 222.352C135.458 222.536 135.246 222.68 135.038 222.784C134.838 222.888 134.646 222.964 134.462 223.012C134.286 223.06 134.126 223.088 133.982 223.096C133.846 223.104 133.734 223.108 133.646 223.108C133.294 223.108 133.002 223.052 132.77 222.94C132.546 222.828 132.366 222.688 132.229 222.52C132.102 222.344 132.01 222.16 131.954 221.968C131.906 221.768 131.882 221.584 131.882 221.416C131.882 221.136 131.942 220.888 132.062 220.672C132.182 220.456 132.346 220.276 132.554 220.132C132.77 219.98 133.018 219.864 133.298 219.784C133.578 219.704 133.882 219.656 134.21 219.64L135.638 219.544V219.22C135.638 218.788 135.554 218.484 135.386 218.308C135.226 218.124 134.914 218.032 134.45 218.032C134.162 218.032 133.854 218.06 133.526 218.116C133.206 218.172 132.902 218.248 132.614 218.344C132.574 218.208 132.534 218.068 132.494 217.924C132.454 217.78 132.414 217.64 132.374 217.504C132.71 217.352 133.094 217.236 133.526 217.156C133.958 217.068 134.37 217.024 134.762 217.024C135.09 217.024 135.386 217.06 135.65 217.132C135.914 217.196 136.138 217.308 136.322 217.468C136.506 217.62 136.646 217.824 136.742 218.08C136.846 218.336 136.898 218.648 136.898 219.016V222.088ZM134.282 220.372C133.93 220.396 133.67 220.488 133.502 220.648C133.342 220.8 133.262 221.008 133.262 221.272C133.262 221.576 133.334 221.808 133.478 221.968C133.63 222.12 133.874 222.196 134.21 222.196C134.434 222.196 134.67 222.14 134.918 222.028C135.166 221.908 135.406 221.744 135.638 221.536V220.276L134.282 220.372ZM138.707 223V217.132H139.979V219.436H140.939C141.195 219.436 141.419 219.38 141.611 219.268C141.803 219.148 141.943 218.928 142.031 218.608L142.475 217.144H143.687L143.231 218.764C143.159 219.02 143.051 219.244 142.907 219.436C142.771 219.62 142.599 219.756 142.391 219.844V219.856C142.687 219.952 142.911 220.088 143.063 220.264C143.215 220.44 143.331 220.656 143.411 220.912C143.523 221.264 143.627 221.616 143.723 221.968C143.827 222.312 143.931 222.656 144.035 223H142.763C142.675 222.696 142.583 222.392 142.487 222.088C142.391 221.776 142.295 221.464 142.199 221.152V221.164C142.135 220.98 142.059 220.832 141.971 220.72C141.883 220.608 141.783 220.52 141.671 220.456C141.567 220.392 141.455 220.352 141.335 220.336C141.215 220.312 141.095 220.3 140.975 220.3H139.979V223H138.707ZM147.616 221.056C147.8 220.416 147.996 219.764 148.204 219.1C148.412 218.436 148.612 217.78 148.804 217.132H150.124L147.784 224.08C147.608 224.6 147.372 224.98 147.076 225.22C146.788 225.46 146.416 225.58 145.96 225.58C145.888 225.58 145.808 225.576 145.72 225.568C145.64 225.568 145.548 225.56 145.444 225.544C145.34 225.536 145.22 225.516 145.084 225.484C144.948 225.46 144.784 225.424 144.592 225.376L144.784 224.488C144.992 224.528 145.164 224.556 145.3 224.572C145.436 224.596 145.568 224.608 145.696 224.608C145.944 224.608 146.14 224.552 146.284 224.44C146.428 224.336 146.552 224.132 146.656 223.828L146.956 222.928H146.344C146.04 221.952 145.736 220.984 145.432 220.024C145.128 219.064 144.824 218.1 144.52 217.132H145.816C145.904 217.42 145.996 217.732 146.092 218.068C146.188 218.396 146.284 218.732 146.38 219.076C146.476 219.42 146.572 219.764 146.668 220.108C146.764 220.444 146.856 220.768 146.944 221.08C147.008 221.312 147.064 221.524 147.112 221.716C147.16 221.908 147.196 222.056 147.22 222.16H147.292L147.616 221.056ZM154.758 223V218.044H152.214V223H150.906V217.132H156.078C156.078 217.54 156.078 218 156.078 218.512C156.078 219.016 156.074 219.536 156.066 220.072C156.066 220.6 156.066 221.12 156.066 221.632C156.066 222.144 156.066 222.6 156.066 223H154.758ZM157.386 223V217.132H158.658V219.436H159.618C159.874 219.436 160.098 219.38 160.29 219.268C160.482 219.148 160.622 218.928 160.71 218.608L161.154 217.144H162.366L161.91 218.764C161.838 219.02 161.73 219.244 161.586 219.436C161.45 219.62 161.278 219.756 161.07 219.844V219.856C161.366 219.952 161.59 220.088 161.742 220.264C161.894 220.44 162.01 220.656 162.09 220.912C162.202 221.264 162.306 221.616 162.402 221.968C162.506 222.312 162.61 222.656 162.714 223H161.442C161.354 222.696 161.262 222.392 161.166 222.088C161.07 221.776 160.974 221.464 160.878 221.152V221.164C160.814 220.98 160.738 220.832 160.65 220.72C160.562 220.608 160.462 220.52 160.35 220.456C160.246 220.392 160.134 220.352 160.014 220.336C159.894 220.312 159.774 220.3 159.654 220.3H158.658V223H157.386ZM168.468 222.088H169.248L169.32 222.832C169.152 222.92 168.956 222.984 168.732 223.024C168.516 223.072 168.308 223.096 168.108 223.096C167.86 223.096 167.66 223.052 167.508 222.964C167.364 222.876 167.284 222.68 167.268 222.376C167.268 222.376 167.26 222.368 167.244 222.352C167.028 222.536 166.816 222.68 166.608 222.784C166.408 222.888 166.216 222.964 166.032 223.012C165.856 223.06 165.696 223.088 165.552 223.096C165.416 223.104 165.304 223.108 165.216 223.108C164.864 223.108 164.572 223.052 164.34 222.94C164.116 222.828 163.936 222.688 163.8 222.52C163.672 222.344 163.58 222.16 163.524 221.968C163.476 221.768 163.452 221.584 163.452 221.416C163.452 221.136 163.512 220.888 163.632 220.672C163.752 220.456 163.916 220.276 164.124 220.132C164.34 219.98 164.588 219.864 164.868 219.784C165.148 219.704 165.452 219.656 165.78 219.64L167.208 219.544V219.22C167.208 218.788 167.124 218.484 166.956 218.308C166.796 218.124 166.484 218.032 166.02 218.032C165.732 218.032 165.424 218.06 165.096 218.116C164.776 218.172 164.472 218.248 164.184 218.344C164.144 218.208 164.104 218.068 164.064 217.924C164.024 217.78 163.984 217.64 163.944 217.504C164.28 217.352 164.664 217.236 165.096 217.156C165.528 217.068 165.94 217.024 166.332 217.024C166.66 217.024 166.956 217.06 167.22 217.132C167.484 217.196 167.708 217.308 167.892 217.468C168.076 217.62 168.216 217.824 168.312 218.08C168.416 218.336 168.468 218.648 168.468 219.016V222.088ZM165.852 220.372C165.5 220.396 165.24 220.488 165.072 220.648C164.912 220.8 164.832 221.008 164.832 221.272C164.832 221.576 164.904 221.808 165.048 221.968C165.2 222.12 165.444 222.196 165.78 222.196C166.004 222.196 166.24 222.14 166.488 222.028C166.736 221.908 166.976 221.744 167.208 221.536V220.276L165.852 220.372Z" fill="white"/>
<rect x="23" y="359" width="88" height="24" rx="5" fill="#141515"/>
<path d="M47.4855 374V366.812H43.9335L43.9455 374H42.5655V365.768H48.8655V374H47.4855ZM51.8003 368.696C52.0643 368.488 52.3483 368.328 52.6523 368.216C52.9643 368.104 53.2683 368.048 53.5643 368.048C53.9963 368.048 54.3563 368.128 54.6443 368.288C54.9403 368.44 55.1723 368.652 55.3403 368.924C55.5163 369.196 55.6403 369.512 55.7123 369.872C55.7843 370.224 55.8203 370.604 55.8203 371.012C55.8203 371.444 55.7763 371.848 55.6883 372.224C55.6003 372.6 55.4603 372.928 55.2683 373.208C55.0763 373.488 54.8243 373.708 54.5123 373.868C54.2083 374.028 53.8363 374.108 53.3963 374.108C53.2843 374.108 53.1603 374.1 53.0243 374.084C52.8883 374.076 52.7483 374.056 52.6043 374.024C52.4603 374 52.3163 373.964 52.1723 373.916C52.0283 373.868 51.8963 373.804 51.7763 373.724V376.496H50.4683V368.12H51.7163L51.7403 368.648L51.8003 368.696ZM53.1203 373.16C53.2963 373.16 53.4683 373.128 53.6363 373.064C53.8043 372.992 53.9523 372.872 54.0803 372.704C54.2083 372.536 54.3083 372.312 54.3803 372.032C54.4603 371.744 54.5003 371.388 54.5003 370.964C54.5003 370.588 54.4683 370.276 54.4043 370.028C54.3403 369.78 54.2483 369.584 54.1283 369.44C54.0083 369.296 53.8643 369.196 53.6963 369.14C53.5363 369.076 53.3603 369.044 53.1683 369.044C53.0563 369.044 52.9323 369.06 52.7963 369.092C52.6683 369.124 52.5403 369.168 52.4123 369.224C52.2843 369.272 52.1643 369.328 52.0523 369.392C51.9403 369.456 51.8523 369.52 51.7883 369.584V372.788C51.8523 372.836 51.9363 372.884 52.0403 372.932C52.1443 372.972 52.2563 373.012 52.3763 373.052C52.4963 373.084 52.6203 373.112 52.7483 373.136C52.8763 373.152 53.0003 373.16 53.1203 373.16ZM62.4314 371.072C62.4314 371.464 62.3834 371.844 62.2874 372.212C62.1914 372.572 62.0314 372.896 61.8074 373.184C61.5914 373.464 61.3034 373.688 60.9434 373.856C60.5834 374.024 60.1354 374.108 59.5994 374.108C59.0874 374.108 58.6594 374.028 58.3154 373.868C57.9714 373.708 57.6914 373.492 57.4754 373.22C57.2674 372.94 57.1154 372.616 57.0194 372.248C56.9314 371.88 56.8874 371.492 56.8874 371.084C56.8874 370.684 56.9394 370.3 57.0434 369.932C57.1474 369.556 57.3114 369.228 57.5354 368.948C57.7594 368.66 58.0474 368.432 58.3994 368.264C58.7594 368.088 59.1914 368 59.6954 368C60.2074 368 60.6394 368.088 60.9914 368.264C61.3434 368.432 61.6234 368.66 61.8314 368.948C62.0474 369.228 62.1994 369.556 62.2874 369.932C62.3834 370.3 62.4314 370.68 62.4314 371.072ZM61.0634 371.084C61.0634 370.836 61.0474 370.588 61.0154 370.34C60.9834 370.084 60.9154 369.856 60.8114 369.656C60.7154 369.448 60.5754 369.28 60.3914 369.152C60.2154 369.024 59.9834 368.96 59.6954 368.96C59.4074 368.96 59.1674 369.024 58.9754 369.152C58.7914 369.272 58.6434 369.436 58.5314 369.644C58.4274 369.844 58.3514 370.072 58.3034 370.328C58.2634 370.576 58.2434 370.828 58.2434 371.084C58.2434 371.364 58.2594 371.628 58.2914 371.876C58.3314 372.124 58.4034 372.344 58.5074 372.536C58.6114 372.72 58.7594 372.868 58.9514 372.98C59.1434 373.092 59.3914 373.148 59.6954 373.148C59.9834 373.148 60.2154 373.088 60.3914 372.968C60.5674 372.848 60.7034 372.692 60.7994 372.5C60.9034 372.308 60.9714 372.088 61.0034 371.84C61.0434 371.592 61.0634 371.34 61.0634 371.084ZM68.7798 373.076L69.3918 373.088V375.704H68.4078V374H64.0278V375.692H63.0198V373.088L63.5598 373.076C63.7518 372.9 63.9038 372.696 64.0158 372.464C64.1358 372.232 64.2278 371.964 64.2918 371.66C64.3638 371.348 64.4158 371 64.4478 370.616C64.4878 370.224 64.5238 369.78 64.5558 369.284L64.6278 368.12H68.7918L68.7798 373.076ZM65.7318 369.056L65.7078 369.548C65.6838 370.012 65.6558 370.428 65.6238 370.796C65.5998 371.156 65.5598 371.48 65.5038 371.768C65.4478 372.056 65.3758 372.308 65.2878 372.524C65.2078 372.732 65.0998 372.916 64.9638 373.076H67.5198V369.056H65.7318ZM75.2491 373.088H76.0291L76.1011 373.832C75.9331 373.92 75.7371 373.984 75.5131 374.024C75.2971 374.072 75.0891 374.096 74.8891 374.096C74.6411 374.096 74.4411 374.052 74.2891 373.964C74.1451 373.876 74.0651 373.68 74.0491 373.376C74.0491 373.376 74.0411 373.368 74.0251 373.352C73.8091 373.536 73.5971 373.68 73.3891 373.784C73.1891 373.888 72.9971 373.964 72.8131 374.012C72.6371 374.06 72.4771 374.088 72.3331 374.096C72.1971 374.104 72.0851 374.108 71.9971 374.108C71.6451 374.108 71.3531 374.052 71.1211 373.94C70.8971 373.828 70.7171 373.688 70.5811 373.52C70.4531 373.344 70.3611 373.16 70.3051 372.968C70.2571 372.768 70.2331 372.584 70.2331 372.416C70.2331 372.136 70.2931 371.888 70.4131 371.672C70.5331 371.456 70.6971 371.276 70.9051 371.132C71.1211 370.98 71.3691 370.864 71.6491 370.784C71.9291 370.704 72.2331 370.656 72.5611 370.64L73.9891 370.544V370.22C73.9891 369.788 73.9051 369.484 73.7371 369.308C73.5771 369.124 73.2651 369.032 72.8011 369.032C72.5131 369.032 72.2051 369.06 71.8771 369.116C71.5571 369.172 71.2531 369.248 70.9651 369.344C70.9251 369.208 70.8851 369.068 70.8451 368.924C70.8051 368.78 70.7651 368.64 70.7251 368.504C71.0611 368.352 71.4451 368.236 71.8771 368.156C72.3091 368.068 72.7211 368.024 73.1131 368.024C73.4411 368.024 73.7371 368.06 74.0011 368.132C74.2651 368.196 74.4891 368.308 74.6731 368.468C74.8571 368.62 74.9971 368.824 75.0931 369.08C75.1971 369.336 75.2491 369.648 75.2491 370.016V373.088ZM72.6331 371.372C72.2811 371.396 72.0211 371.488 71.8531 371.648C71.6931 371.8 71.6131 372.008 71.6131 372.272C71.6131 372.576 71.6851 372.808 71.8291 372.968C71.9811 373.12 72.2251 373.196 72.5611 373.196C72.7851 373.196 73.0211 373.14 73.2691 373.028C73.5171 372.908 73.7571 372.744 73.9891 372.536V371.276L72.6331 371.372ZM80.4782 374V371.3H79.7342C79.4702 371.3 79.2262 371.356 79.0022 371.468C78.7862 371.58 78.6182 371.812 78.4982 372.164V372.152C78.4102 372.464 78.3182 372.776 78.2222 373.088C78.1262 373.392 78.0302 373.696 77.9342 374H76.6622C76.7742 373.656 76.8782 373.312 76.9742 372.968C77.0782 372.616 77.1822 372.264 77.2862 371.912C77.3742 371.656 77.4902 371.44 77.6342 371.264C77.7862 371.088 78.0142 370.952 78.3182 370.856V370.844C78.1182 370.756 77.9422 370.62 77.7902 370.436C77.6462 370.244 77.5382 370.02 77.4662 369.764C77.3942 369.492 77.3182 369.22 77.2382 368.948C77.1662 368.676 77.0902 368.408 77.0102 368.144H78.2342L78.6662 369.608C78.7222 369.784 78.7902 369.928 78.8702 370.04C78.9502 370.144 79.0382 370.228 79.1342 370.292C79.2382 370.348 79.3422 370.388 79.4462 370.412C79.5582 370.428 79.6662 370.436 79.7702 370.436H80.4782V368.132H81.7622V370.436H82.4822C82.5942 370.436 82.7022 370.424 82.8062 370.4C82.9182 370.376 83.0222 370.336 83.1182 370.28C83.2142 370.216 83.3022 370.132 83.3822 370.028C83.4622 369.916 83.5262 369.776 83.5742 369.608L84.0182 368.144H85.2302L84.7862 369.764C84.7062 370.02 84.5942 370.244 84.4502 370.436C84.3142 370.62 84.1422 370.756 83.9342 370.844V370.856C84.2382 370.952 84.4622 371.088 84.6062 371.264C84.7582 371.44 84.8742 371.656 84.9542 371.912C85.0662 372.264 85.1702 372.616 85.2662 372.968C85.3702 373.312 85.4782 373.656 85.5902 374H84.3182L83.7422 372.152V372.164C83.6782 371.98 83.6022 371.832 83.5142 371.72C83.4342 371.608 83.3382 371.52 83.2262 371.456C83.1222 371.392 83.0102 371.352 82.8902 371.336C82.7702 371.312 82.6462 371.3 82.5182 371.3H81.7622V374H80.4782ZM90.4275 374V369.824H90.3795L89.6355 371.036C89.5235 371.204 89.3755 371.436 89.1915 371.732C89.0155 372.02 88.8315 372.316 88.6395 372.62C88.4475 372.916 88.2675 373.192 88.0995 373.448C87.9395 373.704 87.8195 373.888 87.7395 374H86.5035V368.132H87.7995V372.26H87.8595C87.9555 372.1 88.0475 371.944 88.1355 371.792C88.2315 371.632 88.3315 371.472 88.4355 371.312C88.6115 371.04 88.7955 370.76 88.9875 370.472C89.1795 370.176 89.3635 369.888 89.5395 369.608C89.7235 369.32 89.8955 369.052 90.0555 368.804C90.2155 368.548 90.3555 368.324 90.4755 368.132H91.7355V374H90.4275Z" fill="white"/>
<rect x="169" y="26" width="120" height="24" rx="5" fill="#141515"/>
<path d="M196.184 42V38.196H192.632C192.632 38.828 192.632 39.464 192.632 40.104C192.64 40.736 192.644 41.368 192.644 42H191.264V33.78H192.644C192.644 34.356 192.64 34.92 192.632 35.472C192.632 36.024 192.632 36.588 192.632 37.164H196.184V33.78H197.564V42H196.184ZM203.956 41.088H204.736L204.808 41.832C204.64 41.92 204.444 41.984 204.22 42.024C204.004 42.072 203.796 42.096 203.596 42.096C203.348 42.096 203.148 42.052 202.996 41.964C202.852 41.876 202.772 41.68 202.756 41.376C202.756 41.376 202.748 41.368 202.732 41.352C202.516 41.536 202.304 41.68 202.096 41.784C201.896 41.888 201.704 41.964 201.52 42.012C201.344 42.06 201.184 42.088 201.04 42.096C200.904 42.104 200.792 42.108 200.704 42.108C200.352 42.108 200.06 42.052 199.828 41.94C199.604 41.828 199.424 41.688 199.288 41.52C199.16 41.344 199.068 41.16 199.012 40.968C198.964 40.768 198.94 40.584 198.94 40.416C198.94 40.136 199 39.888 199.12 39.672C199.24 39.456 199.404 39.276 199.612 39.132C199.828 38.98 200.076 38.864 200.356 38.784C200.636 38.704 200.94 38.656 201.268 38.64L202.696 38.544V38.22C202.696 37.788 202.612 37.484 202.444 37.308C202.284 37.124 201.972 37.032 201.508 37.032C201.22 37.032 200.912 37.06 200.584 37.116C200.264 37.172 199.96 37.248 199.672 37.344C199.632 37.208 199.592 37.068 199.552 36.924C199.512 36.78 199.472 36.64 199.432 36.504C199.768 36.352 200.152 36.236 200.584 36.156C201.016 36.068 201.428 36.024 201.82 36.024C202.148 36.024 202.444 36.06 202.708 36.132C202.972 36.196 203.196 36.308 203.38 36.468C203.564 36.62 203.704 36.824 203.8 37.08C203.904 37.336 203.956 37.648 203.956 38.016V41.088ZM201.34 39.372C200.988 39.396 200.728 39.488 200.56 39.648C200.4 39.8 200.32 40.008 200.32 40.272C200.32 40.576 200.392 40.808 200.536 40.968C200.688 41.12 200.932 41.196 201.268 41.196C201.492 41.196 201.728 41.14 201.976 41.028C202.224 40.908 202.464 40.744 202.696 40.536V39.276L201.34 39.372ZM209.401 42V37.056H207.709L207.673 37.704C207.633 38.344 207.589 38.928 207.541 39.456C207.501 39.984 207.413 40.448 207.277 40.848C207.141 41.24 206.937 41.564 206.665 41.82C206.393 42.076 206.013 42.256 205.525 42.36L205.189 41.472C205.501 41.352 205.741 41.204 205.909 41.028C206.077 40.852 206.201 40.62 206.281 40.332C206.369 40.044 206.425 39.684 206.449 39.252C206.481 38.812 206.513 38.276 206.545 37.644L206.617 36.12H210.709V42H209.401ZM217.447 39.072C217.447 39.464 217.399 39.844 217.303 40.212C217.207 40.572 217.047 40.896 216.823 41.184C216.607 41.464 216.319 41.688 215.959 41.856C215.599 42.024 215.151 42.108 214.615 42.108C214.103 42.108 213.675 42.028 213.331 41.868C212.987 41.708 212.707 41.492 212.491 41.22C212.283 40.94 212.131 40.616 212.035 40.248C211.947 39.88 211.903 39.492 211.903 39.084C211.903 38.684 211.955 38.3 212.059 37.932C212.163 37.556 212.327 37.228 212.551 36.948C212.775 36.66 213.063 36.432 213.415 36.264C213.775 36.088 214.207 36 214.711 36C215.223 36 215.655 36.088 216.007 36.264C216.359 36.432 216.639 36.66 216.847 36.948C217.063 37.228 217.215 37.556 217.303 37.932C217.399 38.3 217.447 38.68 217.447 39.072ZM216.079 39.084C216.079 38.836 216.063 38.588 216.031 38.34C215.999 38.084 215.931 37.856 215.827 37.656C215.731 37.448 215.591 37.28 215.407 37.152C215.231 37.024 214.999 36.96 214.711 36.96C214.423 36.96 214.183 37.024 213.991 37.152C213.807 37.272 213.659 37.436 213.547 37.644C213.443 37.844 213.367 38.072 213.319 38.328C213.279 38.576 213.259 38.828 213.259 39.084C213.259 39.364 213.275 39.628 213.307 39.876C213.347 40.124 213.419 40.344 213.523 40.536C213.627 40.72 213.775 40.868 213.967 40.98C214.159 41.092 214.407 41.148 214.711 41.148C214.999 41.148 215.231 41.088 215.407 40.968C215.583 40.848 215.719 40.692 215.815 40.5C215.919 40.308 215.987 40.088 216.019 39.84C216.059 39.592 216.079 39.34 216.079 39.084ZM218.621 42V36.12H223.001V37.068H219.917V42H218.621ZM230.969 42V39.348H228.413V42H227.105V36.132H228.425V38.412H230.969V36.132H232.277V42H230.969ZM238.398 41.088H239.178L239.25 41.832C239.082 41.92 238.886 41.984 238.662 42.024C238.446 42.072 238.238 42.096 238.038 42.096C237.79 42.096 237.59 42.052 237.438 41.964C237.294 41.876 237.214 41.68 237.198 41.376C237.198 41.376 237.19 41.368 237.174 41.352C236.958 41.536 236.746 41.68 236.538 41.784C236.338 41.888 236.146 41.964 235.962 42.012C235.786 42.06 235.626 42.088 235.482 42.096C235.346 42.104 235.234 42.108 235.146 42.108C234.794 42.108 234.502 42.052 234.27 41.94C234.046 41.828 233.866 41.688 233.729 41.52C233.602 41.344 233.51 41.16 233.454 40.968C233.406 40.768 233.382 40.584 233.382 40.416C233.382 40.136 233.442 39.888 233.562 39.672C233.682 39.456 233.846 39.276 234.054 39.132C234.27 38.98 234.518 38.864 234.798 38.784C235.078 38.704 235.382 38.656 235.71 38.64L237.138 38.544V38.22C237.138 37.788 237.054 37.484 236.886 37.308C236.726 37.124 236.414 37.032 235.95 37.032C235.662 37.032 235.354 37.06 235.026 37.116C234.706 37.172 234.402 37.248 234.114 37.344C234.074 37.208 234.034 37.068 233.994 36.924C233.954 36.78 233.914 36.64 233.874 36.504C234.21 36.352 234.594 36.236 235.026 36.156C235.458 36.068 235.87 36.024 236.262 36.024C236.59 36.024 236.886 36.06 237.15 36.132C237.414 36.196 237.638 36.308 237.822 36.468C238.006 36.62 238.146 36.824 238.242 37.08C238.346 37.336 238.398 37.648 238.398 38.016V41.088ZM235.782 39.372C235.43 39.396 235.17 39.488 235.002 39.648C234.842 39.8 234.762 40.008 234.762 40.272C234.762 40.576 234.834 40.808 234.978 40.968C235.13 41.12 235.374 41.196 235.71 41.196C235.934 41.196 236.17 41.14 236.418 41.028C236.666 40.908 236.906 40.744 237.138 40.536V39.276L235.782 39.372ZM246.641 36.132C247.265 36.132 247.741 36.268 248.069 36.54C248.397 36.812 248.561 37.18 248.561 37.644C248.561 37.852 248.509 38.072 248.405 38.304C248.309 38.528 248.117 38.72 247.829 38.88V38.892C248.021 38.964 248.177 39.06 248.297 39.18C248.417 39.292 248.513 39.412 248.585 39.54C248.657 39.668 248.705 39.804 248.729 39.948C248.753 40.084 248.765 40.212 248.765 40.332C248.765 40.588 248.713 40.82 248.609 41.028C248.513 41.228 248.377 41.4 248.201 41.544C248.025 41.688 247.821 41.8 247.589 41.88C247.357 41.96 247.109 42 246.845 42H243.593V36.132H246.641ZM244.889 39.336V41.112H246.365C246.757 41.112 247.033 41.02 247.193 40.836C247.361 40.652 247.445 40.444 247.445 40.212C247.445 39.98 247.357 39.776 247.181 39.6C247.005 39.424 246.733 39.336 246.365 39.336H244.889ZM244.889 37.02V38.592H246.293C246.597 38.592 246.833 38.52 247.001 38.376C247.177 38.224 247.265 38.032 247.265 37.8C247.265 37.568 247.185 37.38 247.025 37.236C246.865 37.092 246.601 37.02 246.233 37.02H244.889ZM252.934 36.132C253.558 36.132 254.034 36.268 254.362 36.54C254.69 36.812 254.854 37.18 254.854 37.644C254.854 37.852 254.802 38.072 254.698 38.304C254.602 38.528 254.41 38.72 254.122 38.88V38.892C254.314 38.964 254.47 39.06 254.59 39.18C254.71 39.292 254.806 39.412 254.878 39.54C254.95 39.668 254.998 39.804 255.022 39.948C255.046 40.084 255.058 40.212 255.058 40.332C255.058 40.588 255.006 40.82 254.902 41.028C254.806 41.228 254.67 41.4 254.494 41.544C254.318 41.688 254.114 41.8 253.882 41.88C253.65 41.96 253.402 42 253.138 42H249.886V36.132H252.934ZM251.182 39.336V41.112H252.658C253.05 41.112 253.326 41.02 253.486 40.836C253.654 40.652 253.738 40.444 253.738 40.212C253.738 39.98 253.65 39.776 253.474 39.6C253.298 39.424 253.026 39.336 252.658 39.336H251.182ZM251.182 37.02V38.592H252.586C252.89 38.592 253.126 38.52 253.294 38.376C253.47 38.224 253.558 38.032 253.558 37.8C253.558 37.568 253.478 37.38 253.318 37.236C253.158 37.092 252.894 37.02 252.526 37.02H251.182ZM261.603 39.072C261.603 39.464 261.555 39.844 261.459 40.212C261.363 40.572 261.203 40.896 260.979 41.184C260.763 41.464 260.475 41.688 260.115 41.856C259.755 42.024 259.307 42.108 258.771 42.108C258.259 42.108 257.831 42.028 257.487 41.868C257.143 41.708 256.863 41.492 256.647 41.22C256.439 40.94 256.287 40.616 256.191 40.248C256.103 39.88 256.059 39.492 256.059 39.084C256.059 38.684 256.111 38.3 256.215 37.932C256.319 37.556 256.483 37.228 256.707 36.948C256.931 36.66 257.219 36.432 257.571 36.264C257.931 36.088 258.363 36 258.867 36C259.379 36 259.811 36.088 260.163 36.264C260.515 36.432 260.795 36.66 261.003 36.948C261.219 37.228 261.371 37.556 261.459 37.932C261.555 38.3 261.603 38.68 261.603 39.072ZM260.235 39.084C260.235 38.836 260.219 38.588 260.187 38.34C260.155 38.084 260.087 37.856 259.983 37.656C259.887 37.448 259.747 37.28 259.563 37.152C259.387 37.024 259.155 36.96 258.867 36.96C258.579 36.96 258.339 37.024 258.147 37.152C257.963 37.272 257.815 37.436 257.703 37.644C257.599 37.844 257.523 38.072 257.475 38.328C257.435 38.576 257.415 38.828 257.415 39.084C257.415 39.364 257.431 39.628 257.463 39.876C257.503 40.124 257.575 40.344 257.679 40.536C257.783 40.72 257.931 40.868 258.123 40.98C258.315 41.092 258.563 41.148 258.867 41.148C259.155 41.148 259.387 41.088 259.563 40.968C259.739 40.848 259.875 40.692 259.971 40.5C260.075 40.308 260.143 40.088 260.175 39.84C260.215 39.592 260.235 39.34 260.235 39.084ZM266.008 38.808C266.352 38.904 266.624 39.08 266.824 39.336C267.024 39.584 267.124 39.876 267.124 40.212C267.124 40.516 267.06 40.788 266.932 41.028C266.804 41.26 266.62 41.456 266.38 41.616C266.148 41.776 265.868 41.9 265.54 41.988C265.22 42.068 264.864 42.108 264.472 42.108C264.04 42.108 263.628 42.068 263.236 41.988C262.852 41.9 262.532 41.8 262.276 41.688L262.54 40.86C262.86 40.964 263.148 41.044 263.404 41.1C263.668 41.148 263.936 41.172 264.208 41.172C264.704 41.172 265.088 41.092 265.36 40.932C265.64 40.764 265.78 40.496 265.78 40.128C265.78 39.952 265.74 39.808 265.66 39.696C265.588 39.584 265.492 39.496 265.372 39.432C265.26 39.36 265.136 39.312 265 39.288C264.864 39.264 264.732 39.252 264.604 39.252H263.716V38.472H264.472C264.6 38.472 264.732 38.46 264.868 38.436C265.004 38.412 265.128 38.372 265.24 38.316C265.352 38.252 265.444 38.172 265.516 38.076C265.588 37.972 265.624 37.836 265.624 37.668C265.624 37.436 265.536 37.252 265.36 37.116C265.184 36.972 264.904 36.9 264.52 36.9C264.312 36.9 264.076 36.916 263.812 36.948C263.556 36.972 263.208 37.06 262.768 37.212L262.54 36.42C262.844 36.284 263.192 36.176 263.584 36.096C263.984 36.016 264.372 35.976 264.748 35.976C265.476 35.976 266.024 36.116 266.392 36.396C266.768 36.668 266.956 37.036 266.956 37.5C266.956 37.804 266.864 38.072 266.68 38.304C266.496 38.528 266.272 38.684 266.008 38.772V38.808Z" fill="white"/>
<rect x="382" y="75" width="104" height="24" rx="5" fill="#141515"/>
<path d="M417.464 85.216C417.464 85.488 417.42 85.772 417.332 86.068C417.244 86.364 417.1 86.636 416.9 86.884C416.708 87.124 416.448 87.324 416.12 87.484C415.792 87.644 415.388 87.724 414.908 87.724H413.264L413.276 91H411.896V82.768H414.788C415.628 82.768 416.284 82.98 416.756 83.404C417.228 83.828 417.464 84.432 417.464 85.216ZM413.264 83.752V86.752H414.68C414.856 86.752 415.028 86.728 415.196 86.68C415.364 86.632 415.512 86.552 415.64 86.44C415.776 86.32 415.884 86.164 415.964 85.972C416.044 85.78 416.084 85.54 416.084 85.252C416.084 84.732 415.944 84.352 415.664 84.112C415.384 83.872 415.04 83.752 414.632 83.752H413.264ZM422.855 90.088H423.635L423.707 90.832C423.539 90.92 423.343 90.984 423.119 91.024C422.903 91.072 422.695 91.096 422.495 91.096C422.247 91.096 422.047 91.052 421.895 90.964C421.751 90.876 421.671 90.68 421.655 90.376C421.655 90.376 421.647 90.368 421.631 90.352C421.415 90.536 421.203 90.68 420.995 90.784C420.795 90.888 420.603 90.964 420.419 91.012C420.243 91.06 420.083 91.088 419.939 91.096C419.803 91.104 419.691 91.108 419.603 91.108C419.251 91.108 418.959 91.052 418.727 90.94C418.503 90.828 418.323 90.688 418.187 90.52C418.059 90.344 417.967 90.16 417.911 89.968C417.863 89.768 417.839 89.584 417.839 89.416C417.839 89.136 417.899 88.888 418.019 88.672C418.139 88.456 418.303 88.276 418.511 88.132C418.727 87.98 418.975 87.864 419.255 87.784C419.535 87.704 419.839 87.656 420.167 87.64L421.595 87.544V87.22C421.595 86.788 421.511 86.484 421.343 86.308C421.183 86.124 420.871 86.032 420.407 86.032C420.119 86.032 419.811 86.06 419.483 86.116C419.163 86.172 418.859 86.248 418.571 86.344C418.531 86.208 418.491 86.068 418.451 85.924C418.411 85.78 418.371 85.64 418.331 85.504C418.667 85.352 419.051 85.236 419.483 85.156C419.915 85.068 420.327 85.024 420.719 85.024C421.047 85.024 421.343 85.06 421.607 85.132C421.871 85.196 422.095 85.308 422.279 85.468C422.463 85.62 422.603 85.824 422.699 86.08C422.803 86.336 422.855 86.648 422.855 87.016V90.088ZM420.239 88.372C419.887 88.396 419.627 88.488 419.459 88.648C419.299 88.8 419.219 89.008 419.219 89.272C419.219 89.576 419.291 89.808 419.435 89.968C419.587 90.12 419.831 90.196 420.167 90.196C420.391 90.196 420.627 90.14 420.875 90.028C421.123 89.908 421.363 89.744 421.595 89.536V88.276L420.239 88.372ZM425.876 88.048C425.876 88.352 425.9 88.628 425.948 88.876C426.004 89.124 426.092 89.336 426.212 89.512C426.332 89.688 426.492 89.828 426.692 89.932C426.892 90.028 427.144 90.076 427.448 90.076C427.744 90.076 428.02 90.048 428.276 89.992C428.54 89.928 428.812 89.84 429.092 89.728L429.38 90.604C429.108 90.748 428.784 90.864 428.408 90.952C428.04 91.04 427.656 91.084 427.256 91.084C426.736 91.084 426.3 91.008 425.948 90.856C425.604 90.704 425.328 90.496 425.12 90.232C424.912 89.968 424.764 89.656 424.676 89.296C424.588 88.936 424.544 88.548 424.544 88.132C424.544 87.804 424.58 87.456 424.652 87.088C424.732 86.72 424.872 86.384 425.072 86.08C425.28 85.768 425.564 85.512 425.924 85.312C426.284 85.104 426.752 85 427.328 85C427.584 85 427.86 85.02 428.156 85.06C428.452 85.092 428.76 85.168 429.08 85.288L428.84 86.224C428.568 86.136 428.32 86.084 428.096 86.068C427.88 86.044 427.68 86.032 427.496 86.032C426.968 86.032 426.564 86.212 426.284 86.572C426.012 86.932 425.876 87.424 425.876 88.048ZM433.793 91C433.561 90.616 433.337 90.228 433.121 89.836C432.913 89.444 432.689 89.06 432.449 88.684C432.217 89.068 431.989 89.456 431.765 89.848C431.549 90.24 431.325 90.624 431.093 91H429.689C430.025 90.488 430.357 89.98 430.685 89.476C431.013 88.964 431.345 88.452 431.681 87.94C431.377 87.476 431.073 87.012 430.769 86.548C430.465 86.076 430.161 85.604 429.857 85.132H431.309C431.509 85.468 431.701 85.812 431.885 86.164C432.077 86.508 432.277 86.848 432.485 87.184C432.693 86.848 432.893 86.508 433.085 86.164C433.277 85.812 433.477 85.468 433.685 85.132H435.101L433.241 87.916L435.233 91H433.793ZM441.256 88.072C441.256 88.464 441.208 88.844 441.112 89.212C441.016 89.572 440.856 89.896 440.632 90.184C440.416 90.464 440.128 90.688 439.768 90.856C439.408 91.024 438.96 91.108 438.424 91.108C437.912 91.108 437.484 91.028 437.14 90.868C436.796 90.708 436.516 90.492 436.3 90.22C436.092 89.94 435.94 89.616 435.844 89.248C435.756 88.88 435.712 88.492 435.712 88.084C435.712 87.684 435.764 87.3 435.868 86.932C435.972 86.556 436.136 86.228 436.36 85.948C436.584 85.66 436.872 85.432 437.224 85.264C437.584 85.088 438.016 85 438.52 85C439.032 85 439.464 85.088 439.816 85.264C440.168 85.432 440.448 85.66 440.656 85.948C440.872 86.228 441.024 86.556 441.112 86.932C441.208 87.3 441.256 87.68 441.256 88.072ZM439.888 88.084C439.888 87.836 439.872 87.588 439.84 87.34C439.808 87.084 439.74 86.856 439.636 86.656C439.54 86.448 439.4 86.28 439.216 86.152C439.04 86.024 438.808 85.96 438.52 85.96C438.232 85.96 437.992 86.024 437.8 86.152C437.616 86.272 437.468 86.436 437.356 86.644C437.252 86.844 437.176 87.072 437.128 87.328C437.088 87.576 437.068 87.828 437.068 88.084C437.068 88.364 437.084 88.628 437.116 88.876C437.156 89.124 437.228 89.344 437.332 89.536C437.436 89.72 437.584 89.868 437.776 89.98C437.968 90.092 438.216 90.148 438.52 90.148C438.808 90.148 439.04 90.088 439.216 89.968C439.392 89.848 439.528 89.692 439.624 89.5C439.728 89.308 439.796 89.088 439.828 88.84C439.868 88.592 439.888 88.34 439.888 88.084ZM447.604 90.076L448.216 90.088V92.704H447.232V91H442.852V92.692H441.844V90.088L442.384 90.076C442.576 89.9 442.728 89.696 442.84 89.464C442.96 89.232 443.052 88.964 443.116 88.66C443.188 88.348 443.24 88 443.272 87.616C443.312 87.224 443.348 86.78 443.38 86.284L443.452 85.12H447.616L447.604 90.076ZM444.556 86.056L444.532 86.548C444.508 87.012 444.48 87.428 444.448 87.796C444.424 88.156 444.384 88.48 444.328 88.768C444.272 89.056 444.2 89.308 444.112 89.524C444.032 89.732 443.924 89.916 443.788 90.076H446.344V86.056H444.556ZM455.045 91V85.132H456.353V91H455.045ZM450.557 88.012V90.1H452.141C452.453 90.1 452.701 90.008 452.885 89.824C453.069 89.632 453.161 89.384 453.161 89.08C453.161 88.744 453.057 88.484 452.849 88.3C452.641 88.108 452.377 88.012 452.057 88.012H450.557ZM450.557 85.132V87.172H452.357C452.685 87.172 452.977 87.224 453.233 87.328C453.497 87.424 453.717 87.56 453.893 87.736C454.077 87.912 454.213 88.116 454.301 88.348C454.397 88.572 454.445 88.816 454.445 89.08C454.445 89.368 454.393 89.632 454.289 89.872C454.193 90.104 454.057 90.304 453.881 90.472C453.705 90.64 453.497 90.772 453.257 90.868C453.017 90.956 452.757 91 452.477 91H449.261V85.132H450.557Z" fill="white"/>
<rect x="566" y="132" width="93" height="24" rx="5" fill="#141515"/>
<path d="M594.099 148V140.812H590.547L590.559 148H589.179V139.768H595.479V148H594.099ZM598.414 142.696C598.678 142.488 598.962 142.328 599.266 142.216C599.578 142.104 599.882 142.048 600.178 142.048C600.61 142.048 600.97 142.128 601.258 142.288C601.554 142.44 601.786 142.652 601.954 142.924C602.13 143.196 602.254 143.512 602.326 143.872C602.398 144.224 602.434 144.604 602.434 145.012C602.434 145.444 602.39 145.848 602.302 146.224C602.214 146.6 602.074 146.928 601.882 147.208C601.69 147.488 601.438 147.708 601.126 147.868C600.822 148.028 600.45 148.108 600.01 148.108C599.898 148.108 599.774 148.1 599.638 148.084C599.502 148.076 599.362 148.056 599.218 148.024C599.074 148 598.93 147.964 598.786 147.916C598.642 147.868 598.51 147.804 598.39 147.724V150.496H597.082V142.12H598.33L598.354 142.648L598.414 142.696ZM599.734 147.16C599.91 147.16 600.082 147.128 600.25 147.064C600.418 146.992 600.566 146.872 600.694 146.704C600.822 146.536 600.922 146.312 600.994 146.032C601.074 145.744 601.114 145.388 601.114 144.964C601.114 144.588 601.082 144.276 601.018 144.028C600.954 143.78 600.862 143.584 600.742 143.44C600.622 143.296 600.478 143.196 600.31 143.14C600.15 143.076 599.974 143.044 599.782 143.044C599.67 143.044 599.546 143.06 599.41 143.092C599.282 143.124 599.154 143.168 599.026 143.224C598.898 143.272 598.778 143.328 598.666 143.392C598.554 143.456 598.466 143.52 598.402 143.584V146.788C598.466 146.836 598.55 146.884 598.654 146.932C598.758 146.972 598.87 147.012 598.99 147.052C599.11 147.084 599.234 147.112 599.362 147.136C599.49 147.152 599.614 147.16 599.734 147.16ZM607.545 148V143.824H607.497L606.753 145.036C606.641 145.204 606.493 145.436 606.309 145.732C606.133 146.02 605.949 146.316 605.757 146.62C605.565 146.916 605.385 147.192 605.217 147.448C605.057 147.704 604.937 147.888 604.857 148H603.621V142.132H604.917V146.26H604.977C605.073 146.1 605.165 145.944 605.253 145.792C605.349 145.632 605.449 145.472 605.553 145.312C605.729 145.04 605.913 144.76 606.105 144.472C606.297 144.176 606.481 143.888 606.657 143.608C606.841 143.32 607.013 143.052 607.173 142.804C607.333 142.548 607.473 142.324 607.593 142.132H608.853V148H607.545ZM612.644 139.864C612.772 139.808 612.928 139.744 613.112 139.672C613.296 139.6 613.484 139.528 613.676 139.456C613.868 139.376 614.052 139.3 614.228 139.228C614.404 139.156 614.552 139.092 614.672 139.036C614.736 139.172 614.8 139.304 614.864 139.432C614.928 139.56 614.992 139.692 615.056 139.828C614.792 139.964 614.54 140.088 614.3 140.2C614.068 140.304 613.884 140.384 613.748 140.44C613.364 140.6 613.02 140.756 612.716 140.908C612.42 141.052 612.164 141.224 611.948 141.424C611.732 141.616 611.556 141.848 611.42 142.12C611.284 142.392 611.184 142.736 611.12 143.152C611.128 143.152 611.136 143.156 611.144 143.164C611.352 142.876 611.62 142.648 611.948 142.48C612.276 142.304 612.644 142.216 613.052 142.216C613.492 142.216 613.864 142.292 614.168 142.444C614.48 142.588 614.732 142.792 614.924 143.056C615.116 143.312 615.252 143.616 615.332 143.968C615.42 144.32 615.464 144.704 615.464 145.12C615.464 145.488 615.416 145.852 615.32 146.212C615.224 146.564 615.064 146.88 614.84 147.16C614.624 147.44 614.336 147.668 613.976 147.844C613.616 148.012 613.172 148.096 612.644 148.096C612.116 148.096 611.68 148.012 611.336 147.844C610.992 147.668 610.716 147.44 610.508 147.16C610.308 146.88 610.168 146.568 610.088 146.224C610.008 145.872 609.968 145.516 609.968 145.156C609.968 144.74 609.972 144.384 609.98 144.088C609.988 143.792 610 143.544 610.016 143.344C610.032 143.144 610.048 142.984 610.064 142.864C610.08 142.736 610.1 142.628 610.124 142.54C610.268 141.916 610.552 141.384 610.976 140.944C611.408 140.496 611.964 140.136 612.644 139.864ZM612.8 143.128C612.528 143.128 612.296 143.196 612.104 143.332C611.912 143.468 611.756 143.64 611.636 143.848C611.516 144.048 611.428 144.276 611.372 144.532C611.324 144.78 611.3 145.016 611.3 145.24C611.3 145.464 611.316 145.692 611.348 145.924C611.38 146.148 611.448 146.352 611.552 146.536C611.656 146.712 611.8 146.86 611.984 146.98C612.168 147.092 612.416 147.148 612.728 147.148C613.008 147.148 613.236 147.092 613.412 146.98C613.596 146.868 613.74 146.72 613.844 146.536C613.948 146.344 614.02 146.132 614.06 145.9C614.1 145.66 614.12 145.416 614.12 145.168C614.12 144.912 614.1 144.664 614.06 144.424C614.028 144.176 613.964 143.956 613.868 143.764C613.772 143.572 613.636 143.42 613.46 143.308C613.292 143.188 613.072 143.128 612.8 143.128ZM622.366 148V142.132H623.674V148H622.366ZM617.878 145.012V147.1H619.462C619.774 147.1 620.022 147.008 620.206 146.824C620.39 146.632 620.482 146.384 620.482 146.08C620.482 145.744 620.378 145.484 620.17 145.3C619.962 145.108 619.698 145.012 619.378 145.012H617.878ZM617.878 142.132V144.172H619.678C620.006 144.172 620.298 144.224 620.554 144.328C620.818 144.424 621.038 144.56 621.214 144.736C621.398 144.912 621.534 145.116 621.622 145.348C621.718 145.572 621.766 145.816 621.766 146.08C621.766 146.368 621.714 146.632 621.61 146.872C621.514 147.104 621.378 147.304 621.202 147.472C621.026 147.64 620.818 147.772 620.578 147.868C620.338 147.956 620.078 148 619.798 148H616.582V142.132H617.878ZM628.62 148V143.056H626.928L626.892 143.704C626.852 144.344 626.808 144.928 626.76 145.456C626.72 145.984 626.632 146.448 626.496 146.848C626.36 147.24 626.156 147.564 625.884 147.82C625.612 148.076 625.232 148.256 624.744 148.36L624.408 147.472C624.72 147.352 624.96 147.204 625.128 147.028C625.296 146.852 625.42 146.62 625.5 146.332C625.588 146.044 625.644 145.684 625.668 145.252C625.7 144.812 625.732 144.276 625.764 143.644L625.836 142.12H629.928V148H628.62ZM632.538 145.012V147.1H634.122C634.434 147.1 634.682 147.008 634.866 146.824C635.05 146.632 635.142 146.384 635.142 146.08C635.142 145.744 635.038 145.484 634.83 145.3C634.622 145.108 634.358 145.012 634.038 145.012H632.538ZM632.538 142.132V144.172H634.338C634.666 144.172 634.958 144.224 635.214 144.328C635.478 144.424 635.698 144.56 635.874 144.736C636.058 144.912 636.194 145.116 636.282 145.348C636.378 145.572 636.426 145.816 636.426 146.08C636.426 146.368 636.374 146.632 636.27 146.872C636.174 147.104 636.038 147.304 635.862 147.472C635.686 147.64 635.478 147.772 635.238 147.868C634.998 147.956 634.738 148 634.458 148H631.242V142.132H632.538Z" fill="white"/>
<rect x="526" y="328" width="143" height="48" rx="5" fill="#141515"/>
<path d="M548.177 348V340.812H544.625L544.637 348H543.257V339.768H549.557V348H548.177ZM556.584 345.072C556.584 345.464 556.536 345.844 556.44 346.212C556.344 346.572 556.184 346.896 555.96 347.184C555.744 347.464 555.456 347.688 555.096 347.856C554.736 348.024 554.288 348.108 553.752 348.108C553.24 348.108 552.812 348.028 552.468 347.868C552.124 347.708 551.844 347.492 551.628 347.22C551.42 346.94 551.268 346.616 551.172 346.248C551.084 345.88 551.04 345.492 551.04 345.084C551.04 344.684 551.092 344.3 551.196 343.932C551.3 343.556 551.464 343.228 551.688 342.948C551.912 342.66 552.2 342.432 552.552 342.264C552.912 342.088 553.344 342 553.848 342C554.36 342 554.792 342.088 555.144 342.264C555.496 342.432 555.776 342.66 555.984 342.948C556.2 343.228 556.352 343.556 556.44 343.932C556.536 344.3 556.584 344.68 556.584 345.072ZM555.216 345.084C555.216 344.836 555.2 344.588 555.168 344.34C555.136 344.084 555.068 343.856 554.964 343.656C554.868 343.448 554.728 343.28 554.544 343.152C554.368 343.024 554.136 342.96 553.848 342.96C553.56 342.96 553.32 343.024 553.128 343.152C552.944 343.272 552.796 343.436 552.684 343.644C552.58 343.844 552.504 344.072 552.456 344.328C552.416 344.576 552.396 344.828 552.396 345.084C552.396 345.364 552.412 345.628 552.444 345.876C552.484 346.124 552.556 346.344 552.66 346.536C552.764 346.72 552.912 346.868 553.104 346.98C553.296 347.092 553.544 347.148 553.848 347.148C554.136 347.148 554.368 347.088 554.544 346.968C554.72 346.848 554.856 346.692 554.952 346.5C555.056 346.308 555.124 346.088 555.156 345.84C555.196 345.592 555.216 345.34 555.216 345.084ZM557.769 348V342.12H559.065V347.076H560.973V342.12H562.269V347.076H564.225V342.12H565.533V348H557.769ZM570.464 348V343.056H568.772L568.736 343.704C568.696 344.344 568.652 344.928 568.604 345.456C568.564 345.984 568.476 346.448 568.34 346.848C568.204 347.24 568 347.564 567.728 347.82C567.456 348.076 567.076 348.256 566.588 348.36L566.252 347.472C566.564 347.352 566.804 347.204 566.972 347.028C567.14 346.852 567.264 346.62 567.344 346.332C567.432 346.044 567.488 345.684 567.512 345.252C567.544 344.812 567.576 344.276 567.608 343.644L567.68 342.12H571.772V348H570.464ZM577.01 348V343.824H576.962L576.218 345.036C576.106 345.204 575.958 345.436 575.774 345.732C575.598 346.02 575.414 346.316 575.222 346.62C575.03 346.916 574.85 347.192 574.682 347.448C574.522 347.704 574.402 347.888 574.322 348H573.086V342.132H574.382V346.26H574.442C574.538 346.1 574.63 345.944 574.718 345.792C574.814 345.632 574.914 345.472 575.018 345.312C575.194 345.04 575.378 344.76 575.57 344.472C575.762 344.176 575.946 343.888 576.122 343.608C576.306 343.32 576.478 343.052 576.638 342.804C576.798 342.548 576.938 342.324 577.058 342.132H578.318V348H577.01ZM583.489 348V345.348H580.933V348H579.625V342.132H580.945V344.412H583.489V342.132H584.797V348H583.489ZM590.917 347.088H591.697L591.769 347.832C591.601 347.92 591.405 347.984 591.181 348.024C590.965 348.072 590.757 348.096 590.557 348.096C590.309 348.096 590.109 348.052 589.957 347.964C589.813 347.876 589.733 347.68 589.717 347.376C589.717 347.376 589.709 347.368 589.693 347.352C589.477 347.536 589.265 347.68 589.057 347.784C588.857 347.888 588.665 347.964 588.481 348.012C588.305 348.06 588.145 348.088 588.001 348.096C587.865 348.104 587.753 348.108 587.665 348.108C587.313 348.108 587.021 348.052 586.789 347.94C586.565 347.828 586.385 347.688 586.249 347.52C586.121 347.344 586.029 347.16 585.973 346.968C585.925 346.768 585.901 346.584 585.901 346.416C585.901 346.136 585.961 345.888 586.081 345.672C586.201 345.456 586.365 345.276 586.573 345.132C586.789 344.98 587.037 344.864 587.317 344.784C587.597 344.704 587.901 344.656 588.229 344.64L589.657 344.544V344.22C589.657 343.788 589.573 343.484 589.405 343.308C589.245 343.124 588.933 343.032 588.469 343.032C588.181 343.032 587.873 343.06 587.545 343.116C587.225 343.172 586.921 343.248 586.633 343.344C586.593 343.208 586.553 343.068 586.513 342.924C586.473 342.78 586.433 342.64 586.393 342.504C586.729 342.352 587.113 342.236 587.545 342.156C587.977 342.068 588.389 342.024 588.781 342.024C589.109 342.024 589.405 342.06 589.669 342.132C589.933 342.196 590.157 342.308 590.341 342.468C590.525 342.62 590.665 342.824 590.761 343.08C590.865 343.336 590.917 343.648 590.917 344.016V347.088ZM588.301 345.372C587.949 345.396 587.689 345.488 587.521 345.648C587.361 345.8 587.281 346.008 587.281 346.272C587.281 346.576 587.353 346.808 587.497 346.968C587.649 347.12 587.893 347.196 588.229 347.196C588.453 347.196 588.689 347.14 588.937 347.028C589.185 346.908 589.425 346.744 589.657 346.536V345.276L588.301 345.372ZM599.161 342.132C599.785 342.132 600.261 342.268 600.589 342.54C600.917 342.812 601.081 343.18 601.081 343.644C601.081 343.852 601.029 344.072 600.925 344.304C600.829 344.528 600.637 344.72 600.349 344.88V344.892C600.541 344.964 600.697 345.06 600.817 345.18C600.937 345.292 601.033 345.412 601.105 345.54C601.177 345.668 601.225 345.804 601.249 345.948C601.273 346.084 601.285 346.212 601.285 346.332C601.285 346.588 601.233 346.82 601.129 347.028C601.033 347.228 600.897 347.4 600.721 347.544C600.545 347.688 600.341 347.8 600.109 347.88C599.877 347.96 599.629 348 599.365 348H596.113V342.132H599.161ZM597.409 345.336V347.112H598.885C599.277 347.112 599.553 347.02 599.713 346.836C599.881 346.652 599.965 346.444 599.965 346.212C599.965 345.98 599.877 345.776 599.701 345.6C599.525 345.424 599.253 345.336 598.885 345.336H597.409ZM597.409 343.02V344.592H598.813C599.117 344.592 599.353 344.52 599.521 344.376C599.697 344.224 599.785 344.032 599.785 343.8C599.785 343.568 599.705 343.38 599.545 343.236C599.385 343.092 599.121 343.02 598.753 343.02H597.409ZM607.305 343.068H605.265V342.12H610.629V343.068H608.601V348H607.305V343.068ZM615.843 347.088H616.623L616.695 347.832C616.527 347.92 616.331 347.984 616.107 348.024C615.891 348.072 615.683 348.096 615.483 348.096C615.235 348.096 615.035 348.052 614.883 347.964C614.739 347.876 614.659 347.68 614.643 347.376C614.643 347.376 614.635 347.368 614.619 347.352C614.403 347.536 614.191 347.68 613.983 347.784C613.783 347.888 613.591 347.964 613.407 348.012C613.231 348.06 613.071 348.088 612.927 348.096C612.791 348.104 612.679 348.108 612.591 348.108C612.239 348.108 611.947 348.052 611.715 347.94C611.491 347.828 611.311 347.688 611.175 347.52C611.047 347.344 610.955 347.16 610.899 346.968C610.851 346.768 610.827 346.584 610.827 346.416C610.827 346.136 610.887 345.888 611.007 345.672C611.127 345.456 611.291 345.276 611.499 345.132C611.715 344.98 611.963 344.864 612.243 344.784C612.523 344.704 612.827 344.656 613.155 344.64L614.583 344.544V344.22C614.583 343.788 614.499 343.484 614.331 343.308C614.171 343.124 613.859 343.032 613.395 343.032C613.107 343.032 612.799 343.06 612.471 343.116C612.151 343.172 611.847 343.248 611.559 343.344C611.519 343.208 611.479 343.068 611.439 342.924C611.399 342.78 611.359 342.64 611.319 342.504C611.655 342.352 612.039 342.236 612.471 342.156C612.903 342.068 613.315 342.024 613.707 342.024C614.035 342.024 614.331 342.06 614.595 342.132C614.859 342.196 615.083 342.308 615.267 342.468C615.451 342.62 615.591 342.824 615.687 343.08C615.791 343.336 615.843 343.648 615.843 344.016V347.088ZM613.227 345.372C612.875 345.396 612.615 345.488 612.447 345.648C612.287 345.8 612.207 346.008 612.207 346.272C612.207 346.576 612.279 346.808 612.423 346.968C612.575 347.12 612.819 347.196 613.155 347.196C613.379 347.196 613.615 347.14 613.863 347.028C614.111 346.908 614.351 346.744 614.583 346.536V345.276L613.227 345.372ZM617.652 348V342.132H618.924V344.436H619.884C620.14 344.436 620.364 344.38 620.556 344.268C620.748 344.148 620.888 343.928 620.976 343.608L621.42 342.144H622.632L622.176 343.764C622.104 344.02 621.996 344.244 621.852 344.436C621.716 344.62 621.544 344.756 621.336 344.844V344.856C621.632 344.952 621.856 345.088 622.008 345.264C622.16 345.44 622.276 345.656 622.356 345.912C622.468 346.264 622.572 346.616 622.668 346.968C622.772 347.312 622.876 347.656 622.98 348H621.708C621.62 347.696 621.528 347.392 621.432 347.088C621.336 346.776 621.24 346.464 621.144 346.152V346.164C621.08 345.98 621.004 345.832 620.916 345.72C620.828 345.608 620.728 345.52 620.616 345.456C620.512 345.392 620.4 345.352 620.28 345.336C620.16 345.312 620.04 345.3 619.92 345.3H618.924V348H617.652ZM626.561 346.056C626.745 345.416 626.941 344.764 627.149 344.1C627.357 343.436 627.557 342.78 627.749 342.132H629.069L626.729 349.08C626.553 349.6 626.317 349.98 626.021 350.22C625.733 350.46 625.361 350.58 624.905 350.58C624.833 350.58 624.753 350.576 624.665 350.568C624.585 350.568 624.493 350.56 624.389 350.544C624.285 350.536 624.165 350.516 624.029 350.484C623.893 350.46 623.729 350.424 623.537 350.376L623.729 349.488C623.937 349.528 624.109 349.556 624.245 349.572C624.381 349.596 624.513 349.608 624.641 349.608C624.889 349.608 625.085 349.552 625.229 349.44C625.373 349.336 625.497 349.132 625.601 348.828L625.901 347.928H625.289C624.985 346.952 624.681 345.984 624.377 345.024C624.073 344.064 623.769 343.1 623.465 342.132H624.761C624.849 342.42 624.941 342.732 625.037 343.068C625.133 343.396 625.229 343.732 625.325 344.076C625.421 344.42 625.517 344.764 625.613 345.108C625.709 345.444 625.801 345.768 625.889 346.08C625.953 346.312 626.009 346.524 626.057 346.716C626.105 346.908 626.141 347.056 626.165 347.16H626.237L626.561 346.056ZM629.851 348V342.12H631.147V344.52H632.227C632.267 344.184 632.347 343.864 632.467 343.56C632.595 343.248 632.767 342.976 632.983 342.744C633.199 342.512 633.467 342.328 633.787 342.192C634.107 342.056 634.483 341.988 634.915 341.988C635.395 341.988 635.803 342.076 636.139 342.252C636.475 342.42 636.747 342.648 636.955 342.936C637.163 343.216 637.311 343.544 637.399 343.92C637.495 344.288 637.543 344.672 637.543 345.072C637.543 345.464 637.495 345.844 637.399 346.212C637.303 346.572 637.147 346.896 636.931 347.184C636.715 347.464 636.431 347.688 636.079 347.856C635.735 348.024 635.311 348.108 634.807 348.108C634.351 348.108 633.959 348.036 633.631 347.892C633.311 347.74 633.047 347.54 632.839 347.292C632.639 347.036 632.487 346.74 632.383 346.404C632.279 346.06 632.219 345.7 632.203 345.324H631.147V348H629.851ZM636.223 345.072C636.223 344.832 636.203 344.588 636.163 344.34C636.131 344.084 636.067 343.856 635.971 343.656C635.875 343.448 635.743 343.28 635.575 343.152C635.407 343.024 635.187 342.96 634.915 342.96C634.643 342.96 634.415 343.024 634.231 343.152C634.055 343.272 633.915 343.436 633.811 343.644C633.707 343.844 633.631 344.072 633.583 344.328C633.543 344.576 633.523 344.828 633.523 345.084C633.523 345.356 633.539 345.616 633.571 345.864C633.603 346.112 633.667 346.332 633.763 346.524C633.859 346.716 633.999 346.868 634.183 346.98C634.367 347.092 634.611 347.148 634.915 347.148C635.179 347.148 635.395 347.088 635.563 346.968C635.739 346.848 635.875 346.692 635.971 346.5C636.067 346.3 636.131 346.076 636.163 345.828C636.203 345.58 636.223 345.328 636.223 345.072ZM638.758 345.3V344.316H641.95V345.3H638.758ZM644.781 343.068H642.741V342.12H648.105V343.068H646.077V348H644.781V343.068ZM654.177 345.072C654.177 345.464 654.129 345.844 654.033 346.212C653.937 346.572 653.777 346.896 653.553 347.184C653.337 347.464 653.049 347.688 652.689 347.856C652.329 348.024 651.881 348.108 651.345 348.108C650.833 348.108 650.405 348.028 650.061 347.868C649.717 347.708 649.437 347.492 649.221 347.22C649.013 346.94 648.861 346.616 648.765 346.248C648.677 345.88 648.633 345.492 648.633 345.084C648.633 344.684 648.685 344.3 648.789 343.932C648.893 343.556 649.057 343.228 649.281 342.948C649.505 342.66 649.793 342.432 650.145 342.264C650.505 342.088 650.937 342 651.441 342C651.953 342 652.385 342.088 652.737 342.264C653.089 342.432 653.369 342.66 653.577 342.948C653.793 343.228 653.945 343.556 654.033 343.932C654.129 344.3 654.177 344.68 654.177 345.072ZM652.809 345.084C652.809 344.836 652.793 344.588 652.761 344.34C652.729 344.084 652.661 343.856 652.557 343.656C652.461 343.448 652.321 343.28 652.137 343.152C651.961 343.024 651.729 342.96 651.441 342.96C651.153 342.96 650.913 343.024 650.721 343.152C650.537 343.272 650.389 343.436 650.277 343.644C650.173 343.844 650.097 344.072 650.049 344.328C650.009 344.576 649.989 344.828 649.989 345.084C649.989 345.364 650.005 345.628 650.037 345.876C650.077 346.124 650.149 346.344 650.253 346.536C650.357 346.72 650.505 346.868 650.697 346.98C650.889 347.092 651.137 347.148 651.441 347.148C651.729 347.148 651.961 347.088 652.137 346.968C652.313 346.848 652.449 346.692 652.545 346.5C652.649 346.308 652.717 346.088 652.749 345.84C652.789 345.592 652.809 345.34 652.809 345.084ZM573.495 359.048C573.495 359.352 573.519 359.628 573.567 359.876C573.623 360.124 573.711 360.336 573.831 360.512C573.951 360.688 574.111 360.828 574.311 360.932C574.511 361.028 574.763 361.076 575.067 361.076C575.363 361.076 575.639 361.048 575.895 360.992C576.159 360.928 576.431 360.84 576.711 360.728L576.999 361.604C576.727 361.748 576.403 361.864 576.027 361.952C575.659 362.04 575.275 362.084 574.875 362.084C574.355 362.084 573.919 362.008 573.567 361.856C573.223 361.704 572.947 361.496 572.739 361.232C572.531 360.968 572.383 360.656 572.295 360.296C572.207 359.936 572.163 359.548 572.163 359.132C572.163 358.804 572.199 358.456 572.271 358.088C572.351 357.72 572.491 357.384 572.691 357.08C572.899 356.768 573.183 356.512 573.543 356.312C573.903 356.104 574.371 356 574.947 356C575.203 356 575.479 356.02 575.775 356.06C576.071 356.092 576.379 356.168 576.699 356.288L576.459 357.224C576.187 357.136 575.939 357.084 575.715 357.068C575.499 357.044 575.299 357.032 575.115 357.032C574.587 357.032 574.183 357.212 573.903 357.572C573.631 357.932 573.495 358.424 573.495 359.048ZM579.42 357.068H577.38V356.12H582.744V357.068H580.716V362H579.42V357.068ZM584.841 356.696C585.105 356.488 585.389 356.328 585.693 356.216C586.005 356.104 586.309 356.048 586.605 356.048C587.037 356.048 587.397 356.128 587.685 356.288C587.981 356.44 588.213 356.652 588.381 356.924C588.557 357.196 588.681 357.512 588.753 357.872C588.825 358.224 588.861 358.604 588.861 359.012C588.861 359.444 588.817 359.848 588.729 360.224C588.641 360.6 588.501 360.928 588.309 361.208C588.117 361.488 587.865 361.708 587.553 361.868C587.249 362.028 586.877 362.108 586.437 362.108C586.325 362.108 586.201 362.1 586.065 362.084C585.929 362.076 585.789 362.056 585.645 362.024C585.501 362 585.357 361.964 585.213 361.916C585.069 361.868 584.937 361.804 584.817 361.724V364.496H583.509V356.12H584.757L584.781 356.648L584.841 356.696ZM586.161 361.16C586.337 361.16 586.509 361.128 586.677 361.064C586.845 360.992 586.993 360.872 587.121 360.704C587.249 360.536 587.349 360.312 587.421 360.032C587.501 359.744 587.541 359.388 587.541 358.964C587.541 358.588 587.509 358.276 587.445 358.028C587.381 357.78 587.289 357.584 587.169 357.44C587.049 357.296 586.905 357.196 586.737 357.14C586.577 357.076 586.401 357.044 586.209 357.044C586.097 357.044 585.973 357.06 585.837 357.092C585.709 357.124 585.581 357.168 585.453 357.224C585.325 357.272 585.205 357.328 585.093 357.392C584.981 357.456 584.893 357.52 584.829 357.584V360.788C584.893 360.836 584.977 360.884 585.081 360.932C585.185 360.972 585.297 361.012 585.417 361.052C585.537 361.084 585.661 361.112 585.789 361.136C585.917 361.152 586.041 361.16 586.161 361.16ZM592.571 360.056C592.755 359.416 592.951 358.764 593.159 358.1C593.367 357.436 593.567 356.78 593.759 356.132H595.079L592.739 363.08C592.563 363.6 592.327 363.98 592.031 364.22C591.743 364.46 591.371 364.58 590.915 364.58C590.843 364.58 590.763 364.576 590.675 364.568C590.595 364.568 590.503 364.56 590.399 364.544C590.295 364.536 590.175 364.516 590.039 364.484C589.903 364.46 589.739 364.424 589.547 364.376L589.739 363.488C589.947 363.528 590.119 363.556 590.255 363.572C590.391 363.596 590.523 363.608 590.651 363.608C590.899 363.608 591.095 363.552 591.239 363.44C591.383 363.336 591.507 363.132 591.611 362.828L591.911 361.928H591.299C590.995 360.952 590.691 359.984 590.387 359.024C590.083 358.064 589.779 357.1 589.475 356.132H590.771C590.859 356.42 590.951 356.732 591.047 357.068C591.143 357.396 591.239 357.732 591.335 358.076C591.431 358.42 591.527 358.764 591.623 359.108C591.719 359.444 591.811 359.768 591.899 360.08C591.963 360.312 592.019 360.524 592.067 360.716C592.115 360.908 592.151 361.056 592.175 361.16H592.247L592.571 360.056ZM595.861 362V356.132H597.133V358.436H598.093C598.349 358.436 598.573 358.38 598.765 358.268C598.957 358.148 599.097 357.928 599.185 357.608L599.629 356.144H600.841L600.385 357.764C600.313 358.02 600.205 358.244 600.061 358.436C599.925 358.62 599.753 358.756 599.545 358.844V358.856C599.841 358.952 600.065 359.088 600.217 359.264C600.369 359.44 600.485 359.656 600.565 359.912C600.677 360.264 600.781 360.616 600.877 360.968C600.981 361.312 601.085 361.656 601.189 362H599.917C599.829 361.696 599.737 361.392 599.641 361.088C599.545 360.776 599.449 360.464 599.353 360.152V360.164C599.289 359.98 599.213 359.832 599.125 359.72C599.037 359.608 598.937 359.52 598.825 359.456C598.721 359.392 598.609 359.352 598.489 359.336C598.369 359.312 598.249 359.3 598.129 359.3H597.133V362H595.861ZM603.642 357.068H601.602V356.12H606.966V357.068H604.938V362H603.642V357.068ZM610.372 360.056C610.556 359.416 610.752 358.764 610.96 358.1C611.168 357.436 611.368 356.78 611.56 356.132H612.88L610.54 363.08C610.364 363.6 610.128 363.98 609.832 364.22C609.544 364.46 609.172 364.58 608.716 364.58C608.644 364.58 608.564 364.576 608.476 364.568C608.396 364.568 608.304 364.56 608.2 364.544C608.096 364.536 607.976 364.516 607.84 364.484C607.704 364.46 607.54 364.424 607.348 364.376L607.54 363.488C607.748 363.528 607.92 363.556 608.056 363.572C608.192 363.596 608.324 363.608 608.452 363.608C608.7 363.608 608.896 363.552 609.04 363.44C609.184 363.336 609.308 363.132 609.412 362.828L609.712 361.928H609.1C608.796 360.952 608.492 359.984 608.188 359.024C607.884 358.064 607.58 357.1 607.276 356.132H608.572C608.66 356.42 608.752 356.732 608.848 357.068C608.944 357.396 609.04 357.732 609.136 358.076C609.232 358.42 609.328 358.764 609.424 359.108C609.52 359.444 609.612 359.768 609.7 360.08C609.764 360.312 609.82 360.524 609.868 360.716C609.916 360.908 609.952 361.056 609.976 361.16H610.048L610.372 360.056ZM614.994 356.696C615.258 356.488 615.542 356.328 615.846 356.216C616.158 356.104 616.462 356.048 616.758 356.048C617.19 356.048 617.55 356.128 617.838 356.288C618.134 356.44 618.366 356.652 618.534 356.924C618.71 357.196 618.834 357.512 618.906 357.872C618.978 358.224 619.014 358.604 619.014 359.012C619.014 359.444 618.97 359.848 618.882 360.224C618.794 360.6 618.654 360.928 618.462 361.208C618.27 361.488 618.018 361.708 617.706 361.868C617.402 362.028 617.03 362.108 616.59 362.108C616.478 362.108 616.354 362.1 616.218 362.084C616.082 362.076 615.942 362.056 615.798 362.024C615.654 362 615.51 361.964 615.366 361.916C615.222 361.868 615.09 361.804 614.97 361.724V364.496H613.662V356.12H614.91L614.934 356.648L614.994 356.696ZM616.314 361.16C616.49 361.16 616.662 361.128 616.83 361.064C616.998 360.992 617.146 360.872 617.274 360.704C617.402 360.536 617.502 360.312 617.574 360.032C617.654 359.744 617.694 359.388 617.694 358.964C617.694 358.588 617.662 358.276 617.598 358.028C617.534 357.78 617.442 357.584 617.322 357.44C617.202 357.296 617.058 357.196 616.89 357.14C616.73 357.076 616.554 357.044 616.362 357.044C616.25 357.044 616.126 357.06 615.99 357.092C615.862 357.124 615.734 357.168 615.606 357.224C615.478 357.272 615.358 357.328 615.246 357.392C615.134 357.456 615.046 357.52 614.982 357.584V360.788C615.046 360.836 615.13 360.884 615.234 360.932C615.338 360.972 615.45 361.012 615.57 361.052C615.69 361.084 615.814 361.112 615.942 361.136C616.07 361.152 616.194 361.16 616.314 361.16ZM622.724 360.056C622.908 359.416 623.104 358.764 623.312 358.1C623.52 357.436 623.72 356.78 623.912 356.132H625.232L622.892 363.08C622.716 363.6 622.48 363.98 622.184 364.22C621.896 364.46 621.524 364.58 621.068 364.58C620.996 364.58 620.916 364.576 620.828 364.568C620.748 364.568 620.656 364.56 620.552 364.544C620.448 364.536 620.328 364.516 620.192 364.484C620.056 364.46 619.892 364.424 619.7 364.376L619.892 363.488C620.1 363.528 620.272 363.556 620.408 363.572C620.544 363.596 620.676 363.608 620.804 363.608C621.052 363.608 621.248 363.552 621.392 363.44C621.536 363.336 621.66 363.132 621.764 362.828L622.064 361.928H621.452C621.148 360.952 620.844 359.984 620.54 359.024C620.236 358.064 619.932 357.1 619.628 356.132H620.924C621.012 356.42 621.104 356.732 621.2 357.068C621.296 357.396 621.392 357.732 621.488 358.076C621.584 358.42 621.68 358.764 621.776 359.108C621.872 359.444 621.964 359.768 622.052 360.08C622.116 360.312 622.172 360.524 622.22 360.716C622.268 360.908 622.304 361.056 622.328 361.16H622.4L622.724 360.056Z" fill="white"/>
</svg>
